<?xml version="1.0" encoding="windows-1252"?>
<!-- Generator: Adobe Illustrator 19.0.0, SVG Export Plug-In . SVG Version: 6.00 Build 0)  -->
<svg version="1.1" id="Capa_1" xmlns="http://www.w3.org/2000/svg" xmlns:xlink="http://www.w3.org/1999/xlink" x="0px" y="0px" viewBox="0 0 512 512" style="enable-background:new 0 0 512 512;" xml:space="preserve">
<path style="fill:#F5DCB4;" d="M399,416.18v38.55c0,27.49-22.28,49.77-49.77,49.77h-38.58H126.03c-7.19,0-13.03-5.84-13.03-13.03  V16.53c0-4.99,4.04-9.03,9.03-9.03h267.94c4.99,0,9.03,4.04,9.03,9.03V416.18z"/>
<path style="fill:#E5BF89;" d="M354.134,451c-60.389,0-109.345-48.955-109.345-109.345V7.5H122.03c-4.987,0-9.03,4.043-9.03,9.03  v474.94c0,7.196,5.834,13.03,13.03,13.03h184.62h38.58c27.487,0,49.77-22.283,49.77-49.77V451H354.134z"/>
<path style="fill:#666666;" d="M374,44.088v186.323c0,6.4-5.188,11.588-11.588,11.588H149.588c-6.4,0-11.588-5.188-11.588-11.588  V44.088c0-6.4,5.188-11.588,11.588-11.588h212.823C368.812,32.5,374,37.688,374,44.088z"/>
<path style="fill:#5B5B59;" d="M362.412,32.5H149.588c-6.4,0-11.588,5.188-11.588,11.588V46.5h206.912  c6.4,0,11.588,5.188,11.588,11.588V242h5.912c6.4,0,11.588-5.188,11.588-11.588V44.088C374,37.688,368.812,32.5,362.412,32.5z"/>
<path style="fill:#85B52A;" d="M347.5,64.412v145.677c0,2.436-1.975,4.412-4.412,4.412H168.912c-2.436,0-4.412-1.975-4.412-4.412  V64.412c0-2.436,1.975-4.412,4.412-4.412h174.177C345.525,60,347.5,61.975,347.5,64.412z"/>
<path style="fill:#5B5B59;" d="M238.5,314.99v22.02c0,3.31-2.68,5.99-5.99,5.99h-20.52c-3.31,0-5.99,2.68-5.99,5.99v20.52  c0,3.31-2.68,5.99-5.99,5.99h-22.02c-3.31,0-5.99-2.68-5.99-5.99v-20.52c0-3.31-2.68-5.99-5.99-5.99h-20.52  c-3.31,0-5.99-2.68-5.99-5.99v-22.02c0-3.31,2.68-5.99,5.99-5.99h20.52c3.31,0,5.99-2.68,5.99-5.99v-20.52  c0-3.31,2.68-5.99,5.99-5.99h22.02c3.31,0,5.99,2.68,5.99,5.99v20.52c0,3.31,2.68,5.99,5.99,5.99h20.52  C235.82,309,238.5,311.68,238.5,314.99z"/>
<g>
	<path style="fill:#ED3124;" d="M311,345.5c10.49,0,19,8.51,19,19s-8.51,19-19,19s-19-8.51-19-19S300.51,345.5,311,345.5z"/>
	<path style="fill:#ED3124;" d="M346,285.5c10.49,0,19,8.51,19,19s-8.51,19-19,19s-19-8.51-19-19S335.51,285.5,346,285.5z"/>
</g>
<g>
	<path style="fill:#E00E0E;" d="M311,364.5c0-7.025,3.827-13.148,9.5-16.436c-2.797-1.621-6.036-2.564-9.5-2.564   c-10.49,0-19,8.51-19,19s8.51,19,19,19c3.464,0,6.703-0.943,9.5-2.564C314.827,377.648,311,371.525,311,364.5z"/>
	<path style="fill:#E00E0E;" d="M346,304.5c0-7.025,3.827-13.148,9.5-16.436c-2.797-1.621-6.036-2.564-9.5-2.564   c-10.49,0-19,8.51-19,19s8.51,19,19,19c3.464,0,6.703-0.943,9.5-2.564C349.827,317.648,346,311.525,346,304.5z"/>
</g>
<g>
	<polygon style="fill:#9EC148;" points="164.5,142.103 164.5,180.532 285.032,60 240.074,60  "/>
	<path style="fill:#9EC148;" d="M347.5,67.694v-3.282c0-2.437-1.975-4.412-4.411-4.412h-24.091L165.791,213.207   c0.798,0.799,1.902,1.293,3.121,1.293h31.782L347.5,67.694z"/>
</g>
<path d="M389.97,0H122.03c-9.115,0-16.53,7.415-16.53,16.53v474.94c0,11.32,9.209,20.53,20.53,20.53h223.2  c31.579,0,57.27-25.691,57.27-57.27V16.53C406.5,7.415,399.085,0,389.97,0z M391.5,454.73c0,23.308-18.962,42.27-42.27,42.27h-223.2  c-3.049,0-5.53-2.48-5.53-5.53V16.53c0-0.844,0.686-1.53,1.53-1.53h267.94c0.844,0,1.53,0.687,1.53,1.53L391.5,454.73L391.5,454.73z  "/>
<path d="M374,25H138c-4.142,0-7.5,3.357-7.5,7.5V242c0,4.143,3.358,7.5,7.5,7.5h236c4.142,0,7.5-3.357,7.5-7.5V32.5  C381.5,28.357,378.142,25,374,25z M366.5,234.5h-221V40h221V234.5z"/>
<path d="M164.5,222h183c4.142,0,7.5-3.357,7.5-7.5v-49.759c0-4.143-3.358-7.5-7.5-7.5c-4.142,0-7.5,3.357-7.5,7.5V207H172V67.5h168  v52.783c0,4.143,3.358,7.5,7.5,7.5c4.142,0,7.5-3.357,7.5-7.5V60c0-4.143-3.358-7.5-7.5-7.5h-183c-4.142,0-7.5,3.357-7.5,7.5v154.5  C157,218.643,160.358,222,164.5,222z"/>
<path d="M232.51,301.5H213.5v-19.01c0-7.438-6.052-13.49-13.49-13.49h-22.02c-7.438,0-13.49,6.052-13.49,13.49v19.01h-19.01  c-7.438,0-13.49,6.052-13.49,13.49v22.02c0,7.438,6.052,13.49,13.49,13.49h19.01v19.01c0,7.438,6.052,13.49,13.49,13.49h22.02  c7.438,0,13.49-6.052,13.49-13.49V350.5h19.01c7.438,0,13.49-6.052,13.49-13.49v-22.02C246,307.552,239.948,301.5,232.51,301.5z   M231,335.5h-19.01c-7.438,0-13.49,6.052-13.49,13.49V368h-19v-19.01c0-7.438-6.052-13.49-13.49-13.49H147v-19h19.01  c7.438,0,13.49-6.052,13.49-13.49V284h19v19.01c0,7.438,6.052,13.49,13.49,13.49H231V335.5z"/>
<path d="M311,338c-14.612,0-26.5,11.888-26.5,26.5S296.388,391,311,391s26.5-11.888,26.5-26.5S325.612,338,311,338z M311,376  c-6.341,0-11.5-5.159-11.5-11.5S304.659,353,311,353s11.5,5.159,11.5,11.5S317.341,376,311,376z"/>
<path d="M346,278c-14.612,0-26.5,11.888-26.5,26.5S331.388,331,346,331s26.5-11.888,26.5-26.5S360.612,278,346,278z M346,316  c-6.341,0-11.5-5.159-11.5-11.5S339.659,293,346,293s11.5,5.159,11.5,11.5S352.341,316,346,316z"/>
<path d="M234.572,421.905c-3.644-1.973-8.194-0.619-10.167,3.022l-13,24c-1.973,3.643-0.62,8.194,3.022,10.167  c1.136,0.615,2.359,0.906,3.565,0.906c2.664,0,5.244-1.422,6.602-3.929l13-24C239.567,428.43,238.214,423.878,234.572,421.905z"/>
<path d="M282.572,421.905c-3.644-1.973-8.194-0.619-10.167,3.022l-13,24c-1.973,3.643-0.62,8.194,3.022,10.167  c1.136,0.615,2.359,0.906,3.565,0.906c2.664,0,5.244-1.422,6.602-3.929l13-24C287.567,428.43,286.214,423.878,282.572,421.905z"/>
<g>
</g>
<g>
</g>
<g>
</g>
<g>
</g>
<g>
</g>
<g>
</g>
<g>
</g>
<g>
</g>
<g>
</g>
<g>
</g>
<g>
</g>
<g>
</g>
<g>
</g>
<g>
</g>
<g>
</g>
</svg>